<svg xmlns="http://www.w3.org/2000/svg" width="168" height="42" viewBox="0 0 168 42" fill="none">
  <g clip-path="url(#clip0_3289_3479)">
    <path d="M49.1307 29.2936H61.0827V25.6936H53.3787V12.1336H49.1307V29.2936Z" fill="#262626"/>
    <path d="M68.1639 26.8936C66.4599 26.8936 65.5719 25.4056 65.5719 23.1736C65.5719 20.9416 66.4599 19.4296 68.1639 19.4296C69.8679 19.4296 70.7799 20.9416 70.7799 23.1736C70.7799 25.4056 69.8679 26.8936 68.1639 26.8936ZM68.1879 29.6776C72.1479 29.6776 74.7399 26.8696 74.7399 23.1736C74.7399 19.4776 72.1479 16.6696 68.1879 16.6696C64.2519 16.6696 61.6119 19.4776 61.6119 23.1736C61.6119 26.8696 64.2519 29.6776 68.1879 29.6776Z" fill="#262626"/>
    <path d="M81.5943 33.5416C83.4183 33.5416 85.0263 33.1336 86.1063 32.1736C87.0903 31.2856 87.7383 29.9416 87.7383 28.0936V17.0056H83.9943V18.3256H83.9463C83.2263 17.2936 82.1223 16.6456 80.4903 16.6456C77.4423 16.6456 75.3303 19.1896 75.3303 22.7896C75.3303 26.5576 77.8983 28.6216 80.6583 28.6216C82.1463 28.6216 83.0823 28.0216 83.8023 27.2056H83.8983V28.4296C83.8983 29.9176 83.2023 30.7816 81.5463 30.7816C80.2503 30.7816 79.6023 30.2296 79.3863 29.5816H75.5943C75.9783 32.1496 78.2103 33.5416 81.5943 33.5416ZM81.5703 25.7176C80.1063 25.7176 79.1463 24.5176 79.1463 22.6696C79.1463 20.7976 80.1063 19.5976 81.5703 19.5976C83.2023 19.5976 84.0663 20.9896 84.0663 22.6456C84.0663 24.3736 83.2743 25.7176 81.5703 25.7176Z" fill="#262626"/>
    <path d="M95.4366 26.8936C93.7326 26.8936 92.8447 25.4056 92.8447 23.1736C92.8447 20.9416 93.7326 19.4296 95.4366 19.4296C97.1406 19.4296 98.0526 20.9416 98.0526 23.1736C98.0526 25.4056 97.1406 26.8936 95.4366 26.8936ZM95.4606 29.6776C99.4206 29.6776 102.013 26.8696 102.013 23.1736C102.013 19.4776 99.4206 16.6696 95.4606 16.6696C91.5246 16.6696 88.8846 19.4776 88.8846 23.1736C88.8846 26.8696 91.5246 29.6776 95.4606 29.6776Z" fill="#262626"/>
    <path d="M103.155 29.2936H107.067V17.0056H103.155V29.2936ZM103.155 15.3016H107.067V12.1336H103.155V15.3016Z" fill="#262626"/>
    <path d="M108.764 33.3496H112.676V28.0216H112.724C113.492 29.0536 114.62 29.6776 116.204 29.6776C119.42 29.6776 121.556 27.1336 121.556 23.1496C121.556 19.4536 119.564 16.6456 116.3 16.6456C114.62 16.6456 113.42 17.3896 112.58 18.4936H112.508V17.0056H108.764V33.3496ZM115.196 26.6536C113.516 26.6536 112.556 25.2856 112.556 23.2936C112.556 21.3016 113.42 19.7896 115.124 19.7896C116.804 19.7896 117.596 21.1816 117.596 23.2936C117.596 25.3816 116.684 26.6536 115.196 26.6536Z" fill="#262626"/>
    <path d="M127.926 29.6776C131.142 29.6776 133.518 28.2856 133.518 25.5976C133.518 22.4536 130.974 21.9016 128.814 21.5416C127.254 21.2536 125.862 21.1336 125.862 20.2696C125.862 19.5016 126.606 19.1416 127.566 19.1416C128.646 19.1416 129.39 19.4776 129.534 20.5816H133.134C132.942 18.1576 131.07 16.6456 127.59 16.6456C124.686 16.6456 122.286 17.9896 122.286 20.5816C122.286 23.4616 124.566 24.0376 126.702 24.3976C128.334 24.6856 129.822 24.8056 129.822 25.9096C129.822 26.7016 129.078 27.1336 127.902 27.1336C126.606 27.1336 125.79 26.5336 125.646 25.3096H121.95C122.07 28.0216 124.326 29.6776 127.926 29.6776Z" fill="#262626"/>
    <path d="M138.831 29.6536C140.535 29.6536 141.615 28.9816 142.503 27.7816H142.575V29.2936H146.319V17.0056H142.407V23.8696C142.407 25.3336 141.591 26.3416 140.247 26.3416C138.999 26.3416 138.399 25.5976 138.399 24.2536V17.0056H134.511V25.0696C134.511 27.8056 135.999 29.6536 138.831 29.6536Z" fill="#262626"/>
    <path d="M148.021 29.2936H151.933V22.4056C151.933 20.9416 152.653 19.9096 153.877 19.9096C155.053 19.9096 155.605 20.6776 155.605 21.9976V29.2936H159.517V22.4056C159.517 20.9416 160.213 19.9096 161.461 19.9096C162.637 19.9096 163.189 20.6776 163.189 21.9976V29.2936H167.101V21.3016C167.101 18.5416 165.709 16.6456 162.925 16.6456C161.341 16.6456 160.021 17.3176 159.061 18.8056H159.013C158.389 17.4856 157.165 16.6456 155.557 16.6456C153.781 16.6456 152.605 17.4856 151.837 18.7576H151.765V17.0056H148.021V29.2936Z" fill="#262626"/>
    <path fill-rule="evenodd" clip-rule="evenodd" d="M9.15417 4.39149C7.72351 5.39185 6.42981 6.5746 5.30676 7.90602C9.89606 7.47995 15.7266 8.17567 22.4958 11.5603C29.7244 15.1745 35.5452 15.2967 39.5962 14.5153C39.2286 13.4024 38.7658 12.3328 38.2177 11.316C33.5804 11.8051 27.6354 11.1577 20.707 7.6936C16.3074 5.4938 12.4292 4.58763 9.15417 4.39149ZM35.5088 7.46027C31.8467 3.36862 26.5248 0.793625 20.6014 0.793625C18.8619 0.793625 17.1741 1.01573 15.5651 1.4331C17.7443 2.02771 20.0593 2.89761 22.4958 4.11589C27.5684 6.65215 31.9478 7.46878 35.5088 7.46027ZM40.4623 18.4217C35.5683 19.3881 28.8102 19.1896 20.707 15.138C13.1314 11.3502 7.10187 11.3979 3.03534 12.3016C2.82544 12.3482 2.62048 12.3972 2.42047 12.4482C1.88806 13.6061 1.46307 14.8237 1.15814 16.0881C1.48383 16.0011 1.82037 15.9184 2.1676 15.8412C7.10101 14.7449 14.0715 14.7925 22.4958 19.0047C30.0715 22.7925 36.101 22.7448 40.1676 21.8411C40.3069 21.8102 40.4442 21.7782 40.5792 21.7452C40.594 21.4299 40.6014 21.1126 40.6014 20.7936C40.6014 19.9911 40.5542 19.1996 40.4623 18.4217ZM39.9262 25.9659C35.0797 26.8132 28.5184 26.488 20.707 22.5824C13.1314 18.7946 7.10187 18.8423 3.03534 19.746C2.13269 19.9465 1.32068 20.1908 0.60437 20.4487C0.602417 20.5634 0.60144 20.6784 0.60144 20.7936C0.60144 31.8393 9.55573 40.7936 20.6014 40.7936C29.8585 40.7936 37.6467 34.5045 39.9262 25.9659Z" fill="#262626"/>
  </g>
  <defs>
    <clipPath id="clip0_3289_3479">
      <rect width="167" height="41" fill="white" transform="translate(0.5 0.5)"/>
    </clipPath>
  </defs>
</svg>